<?xml version="1.0" encoding="utf-8"?>
<!-- Generator: Adobe Illustrator 18.0.0, SVG Export Plug-In . SVG Version: 6.00 Build 0)  -->
<!DOCTYPE svg PUBLIC "-//W3C//DTD SVG 1.1//EN" "http://www.w3.org/Graphics/SVG/1.1/DTD/svg11.dtd">
<svg version="1.1" id="Layer_1" xmlns="http://www.w3.org/2000/svg" xmlns:xlink="http://www.w3.org/1999/xlink" x="0px" y="0px"
	 width="135.492px" height="117px" viewBox="0 0 135.492 117" enable-background="new 0 0 135.492 117" xml:space="preserve">
<path fill="#E2F7F5" d="M80.879,60.878C80.879,94.5,93.431,117,60.189,117C26.948,117,0,89.744,0,56.122C0,22.5,41.054,0,74.296,0
	C107.537,0,80.879,27.256,80.879,60.878z"/>
<path fill-rule="evenodd" clip-rule="evenodd" fill="#FEF1E3" d="M114.88,41.396c-3.902-3.507,2.245-7.734,5.753-11.636
	c3.507-3.902,9.589-2.81,13.491,0.697c3.902,3.507-1.426,9.815-4.934,13.717C125.683,48.075,118.782,44.903,114.88,41.396z"/>
<path fill-rule="evenodd" clip-rule="evenodd" fill="#FFFFFF" d="M113,73l-5.846-2c0,0-4.847-9.757-6.847-10V48L86,52.167h-5.158
	c1.364-3,2.158-5.166,2.158-8.083c0-8.836-7.163-16.042-16-16.042s-16,7.143-16,15.979c0,3.123,0.909,6.017,2.456,8.479
	l-9.302,8.505L39.307,70v12l3.847,9l8.923,9l1.962,10l8.981-0.917L65,103.167h15l2,7h8l2-11.083l8-5.042l5-7.021l9-4.01L113,73z"/>
<path fill="#EAF0FC" d="M104.793,75.976c-0.699,0-1.266,0.565-1.266,1.262c0,0.884-0.721,1.603-1.608,1.603
	c-0.886,0-1.607-0.719-1.607-1.603c0-0.697-0.567-1.262-1.266-1.262c-0.699,0-1.266,0.565-1.266,1.262
	c0,2.276,1.857,4.127,4.14,4.127c2.283,0,4.14-1.851,4.14-4.127C106.059,76.54,105.492,75.976,104.793,75.976z M116.677,76.182
	l-3.564-1.138c-0.456-0.146-0.816-0.509-0.962-0.972c-0.751-2.38-1.884-4.616-3.369-6.643c-0.676-0.924-1.429-1.807-2.25-2.647
	c0.526-2.299,0.812-4.901,0.774-7.15c-0.053-3.216-0.698-5.102-1.971-5.767c-0.686-0.358-2.772-1.447-14.066,3.707
	c-0.267,0.122-0.517,0.272-0.748,0.444c-0.761-0.204-1.54-0.393-2.323-0.562c-0.094-0.02-0.192-0.039-0.287-0.058
	c0.915-1.993,1.45-4.158,1.55-6.393c0.031-0.697-0.51-1.286-1.208-1.317c-0.697-0.035-1.29,0.508-1.321,1.204
	c-0.165,3.675-1.694,7.132-4.305,9.735c-1.56,1.555-3.387,2.685-5.333,3.396c-3.376-0.472-6.815-0.472-10.191,0
	c-1.947-0.711-3.773-1.841-5.333-3.396c-2.786-2.777-4.32-6.47-4.32-10.397c0-3.928,1.534-7.62,4.32-10.397
	c2.786-2.777,6.49-4.307,10.429-4.307c3.94,0,7.644,1.529,10.429,4.307c1.119,1.116,2.045,2.39,2.75,3.785
	c0.314,0.623,1.076,0.873,1.7,0.56c0.625-0.313,0.876-1.073,0.561-1.695c-0.826-1.636-1.91-3.128-3.22-4.435
	C81.154,32.792,76.814,31,72.198,31c-4.616,0-8.956,1.792-12.22,5.046c-3.264,3.254-5.062,7.58-5.062,12.182
	c0,4.602,1.798,8.928,5.062,12.182c0.941,0.939,1.966,1.746,3.049,2.422c0,0,0.001,0,0.001,0c-0.787,0.204-1.569,0.433-2.341,0.69
	c-0.663,0.221-1.021,0.936-0.799,1.597c0.222,0.661,0.939,1.018,1.602,0.797c6.905-2.301,14.511-2.301,21.415,0
	c0.133,0.044,0.269,0.065,0.402,0.065c0.53,0,1.023-0.334,1.201-0.862c0.222-0.661-0.136-1.376-0.799-1.597
	c-0.773-0.258-1.554-0.487-2.341-0.69c0,0,0.001,0,0.001,0c1.084-0.676,2.108-1.484,3.049-2.422
	c0.833-0.831,1.568-1.737,2.207-2.701c0.349,0.067,0.695,0.138,1.037,0.212c0.455,0.098,0.907,0.204,1.356,0.315
	c-0.014,0.055-0.029,0.11-0.04,0.165c-0.617,2.922-0.577,5.505,0.119,7.679c0.626,1.954,1.756,3.537,3.358,4.705
	c1.888,1.377,4.167,1.972,6.232,1.972c1.554,0,2.987-0.337,4.039-0.931c1.19-0.672,2.187-2.088,2.977-4.214
	c0.365,0.424,0.711,0.859,1.037,1.304c1.321,1.805,2.33,3.794,2.998,5.912c0.392,1.244,1.366,2.223,2.605,2.619l3.564,1.138
	c0.935,0.299,1.563,1.157,1.563,2.135v5.891c0,0.979-0.628,1.837-1.563,2.136l-5.742,1.834c-0.919,0.293-1.696,0.923-2.189,1.772
	c-2.256,3.886-5.802,7.102-10.542,9.559c-0.548,0.284-0.927,0.792-1.041,1.394l-1.839,9.707c-0.051,0.267-0.286,0.461-0.559,0.461
	h-5.979c-0.273,0-0.508-0.194-0.559-0.461l-1.019-5.365c-0.201-1.055-1.194-1.756-2.262-1.595c-2.576,0.388-5.229,0.585-7.887,0.585
	c-1.978,0-3.93-0.11-5.803-0.327c-1.036-0.119-2,0.585-2.194,1.604l-0.968,5.098c-0.051,0.267-0.286,0.461-0.559,0.461h-5.979
	c-0.273,0-0.508-0.194-0.56-0.465l-1.771-9.168c-0.114-0.591-0.486-1.093-1.022-1.378c-8.079-4.299-12.349-11.483-12.349-20.773
	c0-4.694,1.03-8.844,3.061-12.337c1.896-3.259,4.664-5.954,8.229-8.009c0.605-0.349,0.812-1.121,0.462-1.725
	c-0.35-0.603-1.125-0.809-1.73-0.46c-6.912,3.986-11.081,10.136-12.229,17.947v0c-0.122-0.011-0.244-0.021-0.365-0.034
	c0.022-0.843-0.131-1.693-0.464-2.519c-0.735-1.82-2.243-3.134-3.844-3.347c-1.262-0.168-2.462,0.366-3.295,1.463
	c-1.208,1.591-1.011,2.851-0.633,3.627c0.638,1.31,2.277,2.237,4.997,2.819c-0.075,0.112-0.157,0.224-0.247,0.337
	c-1.607,2.01-3.501,2.454-4.73,2.496c-0.72,0.024-1.296,0.6-1.296,1.319v0.006c0,0.708,0.561,1.286,1.27,1.318
	c0.091,0.004,0.186,0.006,0.285,0.006c1.556,0,4.053-0.572,6.452-3.571c0.379-0.473,0.687-0.972,0.924-1.488
	c0.239,0.027,0.468,0.05,0.688,0.07c0-0.001,0-0.001,0-0.002c-0.043,0.684-0.067,1.378-0.067,2.084c0,5.256,1.257,9.943,3.736,13.93
	c2.285,3.676,5.558,6.686,9.729,8.949l1.721,8.913c0.277,1.458,1.558,2.517,3.047,2.517h5.979c1.489,0,2.77-1.059,3.047-2.517
	l0.875-4.609c1.818,0.192,3.699,0.289,5.602,0.289c2.61,0,5.217-0.181,7.758-0.539l0.923,4.859c0.277,1.458,1.558,2.517,3.047,2.517
	h5.979c1.489,0,2.77-1.059,3.047-2.517l1.79-9.451c5.058-2.667,8.871-6.17,11.335-10.414c0.178-0.306,0.451-0.53,0.77-0.632
	l5.741-1.834c1.988-0.635,3.323-2.459,3.323-4.54v-5.891C120,78.641,118.665,76.817,116.677,76.182z M104.585,61.18
	c-0.487,4.155-1.795,7.709-3.108,8.45c-1.493,0.843-4.94,1.006-7.528-0.881c-2.591-1.889-3.453-5.287-2.494-9.826l0,0
	c0.096-0.456,0.421-0.85,0.869-1.055c6.339-2.893,9.993-3.839,11.351-3.839c0.205,0,0.357,0.021,0.459,0.061
	C104.542,54.524,105.076,56.987,104.585,61.18z M36.555,75.194c-0.131-0.269,0.178-0.743,0.374-1.001
	c0.311-0.41,0.597-0.493,0.813-0.493c0.046,0,0.088,0.004,0.127,0.009c0.582,0.077,1.398,0.716,1.83,1.787
	c0.102,0.252,0.234,0.67,0.265,1.19C38.212,76.324,36.851,75.802,36.555,75.194z M73.428,46.782v-4.517
	c1.563,0.111,2.143,0.823,2.679,0.823c0.67,0,0.982-0.846,0.982-1.268c0-1.09-2.143-1.558-3.661-1.602v-0.601
	c0-0.267-0.335-0.512-0.67-0.512c-0.38,0-0.647,0.245-0.647,0.512v0.645c-2.121,0.223-4.241,1.335-4.241,4.139
	c0,2.848,2.232,3.649,4.241,4.361v5.229c-2.277-0.178-2.879-1.736-3.616-1.736c-0.558,0-1.027,0.734-1.027,1.269
	c0,1.09,1.875,2.581,4.643,2.625l0,0v0.69c0,0.267,0.268,0.512,0.647,0.512c0.335,0,0.67-0.245,0.67-0.512v-0.757
	c2.411-0.334,4.062-1.847,4.062-4.584C77.49,48.473,75.369,47.494,73.428,46.782z M72.244,46.359
	c-1.183-0.445-2.143-0.912-2.143-2.181c0-1.157,0.893-1.713,2.143-1.869V46.359z M73.294,53.947v-4.695
	c1.094,0.467,1.964,1.09,1.964,2.492C75.258,53.013,74.499,53.725,73.294,53.947z"/>
<linearGradient id="SVGID_1_" gradientUnits="userSpaceOnUse" x1="43.576" y1="100.0767" x2="98.6362" y2="45.0164">
	<stop  offset="0" style="stop-color:#6022FF"/>
	<stop  offset="1" style="stop-color:#00BAFF"/>
</linearGradient>
<path fill="url(#SVGID_1_)" d="M99.793,70.976c-0.699,0-1.266,0.565-1.266,1.262c0,0.883-0.721,1.603-1.607,1.603
	c-0.886,0-1.608-0.719-1.608-1.603c0-0.697-0.567-1.262-1.266-1.262c-0.699,0-1.266,0.565-1.266,1.262
	c0,2.276,1.857,4.127,4.14,4.127c2.283,0,4.14-1.852,4.14-4.127C101.059,71.541,100.492,70.976,99.793,70.976z M111.677,71.182
	l-3.564-1.138c-0.456-0.146-0.816-0.509-0.962-0.972c-0.751-2.38-1.884-4.615-3.369-6.643c-0.676-0.924-1.429-1.807-2.25-2.646
	c0.526-2.299,0.812-4.901,0.775-7.15c-0.053-3.216-0.698-5.102-1.971-5.767c-0.686-0.358-2.772-1.447-14.066,3.707
	c-0.268,0.122-0.517,0.272-0.748,0.444c-0.762-0.204-1.54-0.393-2.323-0.562c-0.094-0.021-0.191-0.039-0.286-0.059
	c0.915-1.993,1.45-4.158,1.55-6.393c0.031-0.697-0.51-1.286-1.208-1.317c-0.697-0.035-1.29,0.507-1.322,1.204
	c-0.165,3.675-1.694,7.132-4.305,9.735c-1.56,1.555-3.387,2.685-5.333,3.397c-3.376-0.472-6.815-0.472-10.191,0
	c-1.947-0.711-3.773-1.841-5.333-3.397c-2.786-2.777-4.32-6.469-4.32-10.397c0-3.928,1.534-7.62,4.32-10.397
	c2.786-2.777,6.49-4.307,10.429-4.307c3.939,0,7.643,1.529,10.429,4.307c1.119,1.116,2.045,2.39,2.75,3.785
	c0.315,0.623,1.076,0.873,1.701,0.56c0.625-0.313,0.876-1.072,0.561-1.695c-0.826-1.636-1.91-3.128-3.221-4.435
	C76.154,27.792,71.814,26,67.198,26c-4.616,0-8.956,1.792-12.22,5.046c-3.264,3.254-5.062,7.581-5.062,12.182
	c0,4.601,1.798,8.928,5.062,12.182c0.942,0.939,1.966,1.746,3.049,2.422c0,0,0.001,0,0.001,0c-0.787,0.204-1.569,0.433-2.341,0.691
	c-0.663,0.221-1.021,0.936-0.799,1.597c0.221,0.661,0.939,1.018,1.602,0.797c6.905-2.301,14.511-2.301,21.415,0
	c0.133,0.044,0.269,0.066,0.402,0.066c0.53,0,1.023-0.334,1.201-0.863c0.222-0.661-0.136-1.376-0.799-1.597
	c-0.773-0.257-1.554-0.487-2.341-0.691c0,0,0.001,0,0.001,0c1.084-0.676,2.108-1.483,3.049-2.422
	c0.833-0.83,1.568-1.737,2.207-2.701c0.349,0.067,0.695,0.138,1.037,0.212c0.455,0.098,0.907,0.204,1.356,0.315
	c-0.014,0.055-0.029,0.11-0.04,0.165c-0.618,2.921-0.578,5.505,0.119,7.679c0.626,1.954,1.756,3.537,3.358,4.706
	c1.888,1.377,4.167,1.972,6.232,1.972c1.554,0,2.987-0.337,4.039-0.931c1.19-0.672,2.187-2.088,2.977-4.214
	c0.365,0.424,0.71,0.859,1.036,1.305c1.321,1.805,2.33,3.794,2.998,5.912c0.392,1.244,1.366,2.223,2.605,2.619l3.563,1.138
	c0.935,0.299,1.563,1.157,1.563,2.135v5.891c0,0.979-0.628,1.837-1.563,2.135l-5.742,1.834c-0.919,0.293-1.696,0.923-2.189,1.772
	c-2.256,3.886-5.802,7.102-10.542,9.559c-0.547,0.284-0.927,0.792-1.041,1.394l-1.839,9.707c-0.051,0.268-0.286,0.461-0.559,0.461
	h-5.979c-0.273,0-0.508-0.194-0.559-0.461l-1.018-5.365c-0.2-1.056-1.194-1.757-2.262-1.595c-2.576,0.388-5.229,0.585-7.887,0.585
	c-1.978,0-3.93-0.11-5.803-0.327c-1.036-0.119-2,0.585-2.194,1.604l-0.968,5.097c-0.051,0.268-0.286,0.461-0.559,0.461h-5.979
	c-0.273,0-0.508-0.194-0.559-0.465l-1.771-9.169c-0.114-0.591-0.486-1.093-1.022-1.378c-8.079-4.3-12.349-11.483-12.349-20.773
	c0-4.694,1.03-8.844,3.062-12.337c1.896-3.259,4.664-5.954,8.229-8.009c0.605-0.349,0.812-1.121,0.462-1.725
	c-0.35-0.603-1.125-0.809-1.73-0.46c-6.912,3.986-11.081,10.136-12.229,17.947v0c-0.122-0.011-0.244-0.021-0.365-0.034
	c0.022-0.843-0.131-1.693-0.464-2.518c-0.735-1.82-2.243-3.134-3.844-3.347c-1.261-0.168-2.462,0.366-3.295,1.463
	c-1.208,1.591-1.011,2.851-0.633,3.627c0.638,1.31,2.277,2.237,4.997,2.819c-0.075,0.112-0.157,0.224-0.247,0.336
	c-1.607,2.01-3.501,2.454-4.73,2.496c-0.72,0.024-1.296,0.6-1.296,1.318v0.006c0,0.709,0.56,1.286,1.27,1.318
	c0.091,0.004,0.186,0.007,0.285,0.007c1.556,0,4.053-0.572,6.452-3.571c0.379-0.473,0.687-0.973,0.925-1.488
	c0.239,0.027,0.469,0.05,0.688,0.07c0,0,0-0.001,0-0.001c-0.043,0.684-0.067,1.378-0.067,2.084c0,5.256,1.257,9.943,3.736,13.93
	c2.285,3.676,5.558,6.686,9.729,8.949l1.721,8.913c0.277,1.458,1.558,2.517,3.047,2.517h5.979c1.489,0,2.77-1.058,3.047-2.517
	l0.875-4.609c1.817,0.192,3.699,0.289,5.602,0.289c2.61,0,5.217-0.181,7.758-0.539l0.923,4.859c0.277,1.458,1.558,2.516,3.047,2.516
	h5.979c1.489,0,2.77-1.058,3.047-2.517l1.79-9.451c5.058-2.667,8.871-6.169,11.335-10.414c0.178-0.306,0.451-0.531,0.77-0.632
	l5.741-1.834c1.988-0.635,3.323-2.459,3.323-4.54v-5.891C115,73.641,113.665,71.817,111.677,71.182z M99.585,56.18
	c-0.488,4.154-1.795,7.709-3.108,8.45c-1.493,0.843-4.94,1.006-7.528-0.881c-2.591-1.89-3.453-5.288-2.494-9.826c0,0,0,0,0,0
	c0.096-0.456,0.421-0.85,0.869-1.055c6.339-2.893,9.993-3.839,11.351-3.839c0.205,0,0.357,0.021,0.459,0.061
	C99.541,49.524,100.076,51.987,99.585,56.18z M31.555,70.194c-0.131-0.269,0.178-0.743,0.374-1.001
	c0.311-0.41,0.597-0.493,0.813-0.493c0.046,0,0.088,0.004,0.127,0.009c0.582,0.078,1.398,0.716,1.83,1.787
	c0.102,0.252,0.234,0.67,0.265,1.19C33.212,71.324,31.851,70.802,31.555,70.194z M68.428,41.782v-4.517
	c1.562,0.111,2.143,0.823,2.679,0.823c0.67,0,0.982-0.845,0.982-1.268c0-1.091-2.143-1.558-3.661-1.602v-0.601
	c0-0.267-0.335-0.512-0.67-0.512c-0.38,0-0.647,0.245-0.647,0.512v0.646c-2.121,0.222-4.241,1.335-4.241,4.139
	c0,2.848,2.232,3.65,4.241,4.361v5.229c-2.277-0.178-2.879-1.735-3.616-1.735c-0.558,0-1.027,0.734-1.027,1.268
	c0,1.09,1.875,2.581,4.643,2.626l0,0v0.69c0,0.267,0.268,0.512,0.647,0.512c0.335,0,0.67-0.245,0.67-0.512v-0.757
	c2.411-0.334,4.062-1.847,4.062-4.584C72.49,43.473,70.369,42.494,68.428,41.782z M67.244,41.359
	c-1.183-0.445-2.143-0.912-2.143-2.181c0-1.157,0.893-1.713,2.143-1.869V41.359z M68.294,48.947v-4.695
	c1.094,0.467,1.964,1.09,1.964,2.492C70.258,48.013,69.499,48.725,68.294,48.947z"/>
</svg>
