<?xml version="1.0" encoding="utf-8"?>
<!-- Generator: Adobe Illustrator 18.0.0, SVG Export Plug-In . SVG Version: 6.00 Build 0)  -->
<!DOCTYPE svg PUBLIC "-//W3C//DTD SVG 1.1//EN" "http://www.w3.org/Graphics/SVG/1.1/DTD/svg11.dtd">
<svg version="1.1" id="Layer_1" xmlns="http://www.w3.org/2000/svg" xmlns:xlink="http://www.w3.org/1999/xlink" x="0px" y="0px"
	 width="137.719px" height="121px" viewBox="0 0 137.719 121" enable-background="new 0 0 137.719 121" xml:space="preserve">
<g>
	<path fill-rule="evenodd" clip-rule="evenodd" fill="#FEF1E3" d="M134.5,14c5.247,0,2.5,4.253,2.5,9.5s-5.253,9.5-10.5,9.5
		c-5.247,0-5.5-6.253-5.5-11.5C121,16.254,129.253,14,134.5,14z"/>
	<path fill="#E2F7F5" d="M84.434,62.959c0,34.771,13.103,58.04-21.599,58.04C28.132,121,0,92.812,0,58.04
		C0,23.269,42.859,0,77.562,0C112.264,0,84.434,28.188,84.434,62.959z"/>
	<g>
		<path fill="#EAF0FC" d="M115.76,61.458c0.685,0,1.24-0.551,1.24-1.231v-8.591c0-2.035-1.67-3.691-3.721-3.691h-1.24v-3.281
			c0-2.035-1.67-3.692-3.721-3.692h-1.24v-3.281c0-2.035-1.669-3.691-3.721-3.691H55.722C53.669,34,52,35.656,52,37.692v6.786
			c0,0.68,0.555,1.231,1.24,1.231c0.685,0,1.24-0.551,1.24-1.231v-6.786c0-0.679,0.556-1.23,1.24-1.23h47.634
			c0.684,0,1.24,0.552,1.24,1.23v62.672c0,0.678-0.556,1.23-1.24,1.23H55.722c-0.684,0-1.24-0.552-1.24-1.23V49.728
			c0-0.68-0.555-1.231-1.24-1.231c-0.685,0-1.24,0.551-1.24,1.231v50.635c0,2.035,1.669,3.692,3.721,3.692h1.241v3.281
			c0,2.035,1.669,3.691,3.721,3.691h1.24v3.281c0,2.036,1.669,3.692,3.721,3.692h47.633c2.052,0,3.721-1.656,3.721-3.692V65.448
			c0-0.68-0.555-1.231-1.24-1.231c-0.685,0-1.241,0.551-1.241,1.231v48.861c0,0.679-0.556,1.231-1.241,1.231H65.645
			c-0.684,0-1.241-0.552-1.241-1.231v-3.281h30.659c0.685,0,1.24-0.551,1.24-1.23c0-0.679-0.555-1.23-1.24-1.23h-34.38
			c-0.684,0-1.241-0.552-1.241-1.23v-3.281h43.912c2.052,0,3.721-1.656,3.721-3.692v-56.93h1.24c0.684,0,1.241,0.552,1.241,1.231
			v62.672c0,0.679-0.556,1.23-1.241,1.23h-7.992c-0.685,0-1.24,0.551-1.24,1.23c0,0.68,0.555,1.23,1.24,1.23h7.992
			c2.052,0,3.721-1.656,3.721-3.691v-56.93h1.24c0.684,0,1.241,0.552,1.241,1.23v8.591C114.519,60.908,115.074,61.458,115.76,61.458
			z"/>
		<path fill="#EAF0FC" d="M60.353,54.344v8.531c0,1.04,0.853,1.887,1.902,1.887h8.601c1.049,0,1.902-0.846,1.902-1.887V56.53
			l2.542-2.153c0.521-0.441,0.583-1.218,0.138-1.735c-0.445-0.517-1.228-0.578-1.749-0.137l-1.145,0.97
			c-0.317-0.604-0.955-1.018-1.688-1.018h-8.6C61.206,52.457,60.353,53.303,60.353,54.344z M62.834,54.918h7.443v0.477l-2.461,2.084
			l-1.175-1.263c-0.465-0.499-1.25-0.53-1.753-0.069c-0.503,0.461-0.535,1.239-0.07,1.739l1.985,2.133
			c0.452,0.486,1.21,0.53,1.717,0.101l1.758-1.489v3.67h-7.443L62.834,54.918L62.834,54.918z"/>
		<path fill="#EAF0FC" d="M97.484,54.426H77.636c-0.685,0-1.241,0.551-1.241,1.23c0,0.68,0.555,1.23,1.241,1.23h19.847
			c0.685,0,1.24-0.551,1.24-1.23C98.724,54.977,98.169,54.426,97.484,54.426z"/>
		<path fill="#EAF0FC" d="M97.484,59.676H77.636c-0.685,0-1.241,0.551-1.241,1.231c0,0.68,0.555,1.23,1.241,1.23h19.847
			c0.685,0,1.24-0.551,1.24-1.23C98.724,60.227,98.169,59.676,97.484,59.676z"/>
		<path fill="#EAF0FC" d="M60.353,78.789c0,1.04,0.853,1.887,1.902,1.887h8.601c1.049,0,1.902-0.846,1.902-1.887v-8.531
			c0-1.04-0.853-1.886-1.902-1.886h-8.601c-1.049,0-1.902,0.846-1.902,1.886V78.789z M62.834,70.832h7.443v7.383h-7.443V70.832z"/>
		<path fill="#EAF0FC" d="M97.484,70.34H77.636c-0.685,0-1.241,0.551-1.241,1.231c0,0.68,0.555,1.231,1.241,1.231h19.847
			c0.685,0,1.24-0.551,1.24-1.231C98.724,70.891,98.169,70.34,97.484,70.34z"/>
		<path fill="#EAF0FC" d="M97.484,75.59H77.636c-0.685,0-1.241,0.551-1.241,1.23c0,0.68,0.555,1.231,1.241,1.231h19.847
			c0.685,0,1.24-0.551,1.24-1.231C98.724,76.141,98.169,75.59,97.484,75.59z"/>
		<path fill="#EAF0FC" d="M60.353,94.703c0,1.04,0.853,1.887,1.902,1.887h8.601c1.049,0,1.902-0.847,1.902-1.887v-8.531
			c0-1.04-0.853-1.887-1.902-1.887h-8.601c-1.049,0-1.902,0.846-1.902,1.887V94.703z M62.834,86.746h7.443v7.383h-7.443V86.746z"/>
		<path fill="#EAF0FC" d="M97.484,86.254H77.636c-0.685,0-1.241,0.551-1.241,1.231c0,0.68,0.555,1.23,1.241,1.23h19.847
			c0.685,0,1.24-0.551,1.24-1.23C98.724,86.805,98.169,86.254,97.484,86.254z"/>
		<path fill="#EAF0FC" d="M97.484,91.504H77.636c-0.685,0-1.241,0.551-1.241,1.23c0,0.68,0.555,1.23,1.241,1.23h19.847
			c0.685,0,1.24-0.55,1.24-1.23C98.724,92.055,98.169,91.504,97.484,91.504z"/>
		<path fill="#EAF0FC" d="M91.199,39.824H68.374c-2.28,0-4.135,1.84-4.135,4.102c0,2.262,1.855,4.102,4.135,4.102h22.825
			c2.28,0,4.135-1.84,4.135-4.102C95.333,41.664,93.479,39.824,91.199,39.824z M91.199,45.567H68.374
			c-0.912,0-1.654-0.736-1.654-1.641c0-0.904,0.742-1.641,1.654-1.641h22.825c0.912,0,1.654,0.736,1.654,1.641
			C92.853,44.831,92.111,45.567,91.199,45.567z"/>
	</g>
	<path fill-rule="evenodd" clip-rule="evenodd" fill="#FFFFFF" d="M45,28l-1,67l5,1v6l5,2v5h52V43h-4v-7l-5-1l-1-7H45z"/>
	<linearGradient id="SVGID_1_" gradientUnits="userSpaceOnUse" x1="44.2988" y1="100.2016" x2="106.7016" y2="37.7989">
		<stop  offset="0" style="stop-color:#6022FF"/>
		<stop  offset="1" style="stop-color:#00BAFF"/>
	</linearGradient>
	<path fill="url(#SVGID_1_)" d="M51.353,47.344v8.531c0,1.04,0.853,1.887,1.902,1.887h8.601c1.049,0,1.902-0.846,1.902-1.887V49.53
		l2.542-2.152c0.521-0.441,0.583-1.218,0.138-1.735c-0.444-0.517-1.228-0.578-1.749-0.137l-1.145,0.97
		c-0.317-0.604-0.955-1.018-1.688-1.018h-8.601C52.206,45.457,51.353,46.303,51.353,47.344z M53.833,47.918h7.443v0.477
		l-2.461,2.084l-1.175-1.263c-0.465-0.499-1.249-0.53-1.753-0.07c-0.504,0.461-0.535,1.239-0.07,1.739l1.985,2.133
		c0.452,0.485,1.21,0.53,1.717,0.101l1.758-1.489v3.67h-7.443L53.833,47.918L53.833,47.918z M88.484,47.426H68.636
		c-0.685,0-1.24,0.551-1.24,1.23c0,0.68,0.555,1.23,1.24,1.23h19.847c0.685,0,1.24-0.551,1.24-1.23
		C89.724,47.977,89.169,47.426,88.484,47.426z M88.484,52.676H68.636c-0.685,0-1.24,0.551-1.24,1.23c0,0.68,0.555,1.231,1.24,1.231
		h19.847c0.685,0,1.24-0.551,1.24-1.231C89.724,53.227,89.169,52.676,88.484,52.676z M51.353,71.789c0,1.04,0.853,1.887,1.902,1.887
		h8.601c1.049,0,1.902-0.846,1.902-1.887v-8.531c0-1.04-0.853-1.887-1.902-1.887h-8.601c-1.049,0-1.902,0.846-1.902,1.887V71.789z
		 M53.833,63.832h7.443v7.383h-7.443V63.832z M88.484,63.34H68.636c-0.685,0-1.24,0.551-1.24,1.23c0,0.68,0.555,1.23,1.24,1.23
		h19.847c0.685,0,1.24-0.551,1.24-1.23C89.724,63.891,89.169,63.34,88.484,63.34z M88.484,68.59H68.636
		c-0.685,0-1.24,0.551-1.24,1.23c0,0.68,0.555,1.231,1.24,1.231h19.847c0.685,0,1.24-0.551,1.24-1.231
		C89.724,69.141,89.169,68.59,88.484,68.59z M51.353,87.703c0,1.04,0.853,1.887,1.902,1.887h8.601c1.049,0,1.902-0.846,1.902-1.887
		v-8.531c0-1.04-0.853-1.887-1.902-1.887h-8.601c-1.049,0-1.902,0.846-1.902,1.887V87.703z M53.833,79.746h7.443v7.383h-7.443
		V79.746z M88.484,79.254H68.636c-0.685,0-1.24,0.551-1.24,1.23c0,0.68,0.555,1.231,1.24,1.231h19.847c0.685,0,1.24-0.55,1.24-1.231
		C89.724,79.805,89.169,79.254,88.484,79.254z M88.484,84.504H68.636c-0.685,0-1.24,0.551-1.24,1.23c0,0.68,0.555,1.23,1.24,1.23
		h19.847c0.685,0,1.24-0.551,1.24-1.23C89.724,85.055,89.169,84.504,88.484,84.504z M82.199,32.824H59.374
		c-2.28,0-4.135,1.84-4.135,4.102c0,2.262,1.855,4.102,4.135,4.102h22.824c2.28,0,4.135-1.84,4.135-4.102
		C86.334,34.664,84.479,32.824,82.199,32.824z M82.199,38.567H59.374c-0.912,0-1.654-0.736-1.654-1.641
		c0-0.905,0.742-1.64,1.654-1.64h22.824c0.912,0,1.654,0.736,1.654,1.64C83.853,37.831,83.111,38.567,82.199,38.567z M106.76,54.458
		c0.685,0,1.24-0.551,1.24-1.23v-8.591c0-2.035-1.67-3.691-3.721-3.691h-1.24v-3.281c0-2.035-1.67-3.692-3.721-3.692h-1.24v-3.281
		c0-2.035-1.67-3.691-3.721-3.691H46.722C44.669,27,43,28.656,43,30.691v6.787c0,0.68,0.555,1.23,1.241,1.23
		c0.685,0,1.24-0.551,1.24-1.23v-6.787c0-0.679,0.556-1.23,1.241-1.23h47.634c0.684,0,1.24,0.552,1.24,1.23v62.672
		c0,0.679-0.556,1.231-1.24,1.231H46.722c-0.684,0-1.241-0.552-1.241-1.231V42.728c0-0.68-0.555-1.23-1.24-1.23
		c-0.685,0-1.241,0.55-1.241,1.23v50.635c0,2.035,1.669,3.691,3.721,3.691h1.24v3.281c0,2.035,1.669,3.691,3.721,3.691h1.24v3.281
		c0,2.035,1.669,3.691,3.721,3.691h47.634c2.052,0,3.721-1.656,3.721-3.691V58.447c0-0.68-0.555-1.23-1.24-1.23
		c-0.685,0-1.241,0.551-1.241,1.23v48.861c0,0.679-0.556,1.23-1.24,1.23H56.645c-0.684,0-1.24-0.552-1.24-1.23v-3.281h30.659
		c0.685,0,1.24-0.551,1.24-1.23s-0.555-1.23-1.24-1.23h-34.38c-0.684,0-1.241-0.552-1.241-1.23v-3.281h43.912
		c2.052,0,3.721-1.656,3.721-3.691V36.434h1.24c0.684,0,1.24,0.552,1.24,1.23v62.672c0,0.678-0.556,1.23-1.24,1.23h-7.992
		c-0.685,0-1.241,0.551-1.241,1.23s0.555,1.23,1.241,1.23h7.992c2.052,0,3.721-1.656,3.721-3.691v-56.93h1.24
		c0.684,0,1.24,0.552,1.24,1.23v8.591C105.519,53.907,106.075,54.458,106.76,54.458z"/>
</g>
</svg>
