<?xml version="1.0" encoding="utf-8"?>
<!-- Generator: Adobe Illustrator 18.0.0, SVG Export Plug-In . SVG Version: 6.00 Build 0)  -->
<!DOCTYPE svg PUBLIC "-//W3C//DTD SVG 1.1//EN" "http://www.w3.org/Graphics/SVG/1.1/DTD/svg11.dtd">
<svg version="1.1" id="Layer_1" xmlns="http://www.w3.org/2000/svg" xmlns:xlink="http://www.w3.org/1999/xlink" x="0px" y="0px"
	 width="149.276px" height="113.994px" viewBox="0 0 149.276 113.994" enable-background="new 0 0 149.276 113.994"
	 xml:space="preserve">
<g>
	<path fill-rule="evenodd" clip-rule="evenodd" fill="#E2F7F5" d="M145.497,21.986c5.247,0,3.5,7.253,3.5,12.5
		c0,5.246-5.253,8.5-10.5,8.5c-5.247,0-5.5-8.253-5.5-13.5S140.251,21.986,145.497,21.986z"/>
	<path fill="#FEF1E3" d="M52.925,113.949c-33.33,1.945-50.913-59.043-52.851-92.401C-1.863-11.81,34.537,4.038,67.866,2.093
		c33.33-1.944,30.902,18.56,32.839,51.918C102.643,87.369,86.255,112.004,52.925,113.949z"/>
	<path fill-rule="evenodd" clip-rule="evenodd" fill="#FFFFFF" d="M54.997,33.986c0,0-10.332-1.924-10,15c0.332,16.924,1,47,1,47
		s0.335,6.41,8,7c7.665,0.59,62,1,62,1s6.335,0.41,7-9c0.665-9.409,0-54,0-54s0.669-8.591-7-8
		C108.329,33.576,54.997,33.986,54.997,33.986z"/>
	<path fill="#EAF0FC" d="M99.908,93.139c-2.651,0-4.808-2.156-4.808-4.808v-7.766c0-2.651,2.156-4.807,4.808-4.807h7.766
		c2.651,0,4.808,2.156,4.808,4.807v7.766c0,2.652-2.157,4.808-4.808,4.808H99.908z M98.106,90.133h11.368l0.006-1.798l-0.005-9.572
		H98.106V90.133z M110.979,64.387c-0.829,0-1.503-0.674-1.503-1.502c0-0.829,0.674-1.503,1.503-1.503
		c0.829,0,1.503,0.674,1.503,1.503C112.482,63.713,111.808,64.387,110.979,64.387z M96.603,64.387c-0.829,0-1.503-0.674-1.503-1.502
		c0-0.829,0.674-1.503,1.503-1.503c0.829,0,1.503,0.674,1.503,1.503C98.106,63.713,97.432,64.387,96.603,64.387z M60.414,110.986
		c-6.295,0-11.417-5.122-11.417-11.418V48.013c0-6.295,5.122-11.417,11.417-11.417h5.933v-5.107c0-0.829,0.674-1.503,1.503-1.503
		c0.829,0,1.503,0.674,1.503,1.503v5.107h18.476v-5.107c0-0.829,0.674-1.503,1.503-1.503c0.829,0,1.503,0.674,1.503,1.503v5.107
		h18.641v-5.107c0-0.829,0.674-1.503,1.503-1.503c0.829,0,1.503,0.674,1.503,1.503v5.107h6.098c6.296,0,11.417,5.122,11.417,11.417
		v35.031c0,0.829-0.674,1.503-1.503,1.503c-0.829,0-1.503-0.674-1.503-1.503V48.013c0-4.638-3.773-8.411-8.411-8.411h-6.098v5.107
		c0,0.828-0.674,1.502-1.503,1.502c-0.829,0-1.503-0.674-1.503-1.502v-5.107H90.835v5.107c0,0.828-0.674,1.502-1.503,1.502
		c-0.829,0-1.503-0.674-1.503-1.502v-5.107H69.353v5.107c0,0.828-0.674,1.502-1.503,1.502c-0.829,0-1.503-0.674-1.503-1.502v-5.107
		h-5.933c-4.638,0-8.411,3.773-8.411,8.411v51.555c0,4.638,3.773,8.412,8.411,8.412h58.166c4.638,0,8.411-3.774,8.411-8.412
		c0-0.828,0.674-1.502,1.503-1.502c0.829,0,1.503,0.674,1.503,1.502c0,6.296-5.122,11.418-11.417,11.418H60.414z M67.85,93.139
		c-0.829,0-1.503-0.674-1.503-1.503s0.674-1.503,1.503-1.503c0.829,0,1.503,0.674,1.503,1.503S68.679,93.139,67.85,93.139z
		 M67.85,64.387c-0.829,0-1.503-0.674-1.503-1.502c0-0.829,0.674-1.503,1.503-1.503c0.829,0,1.503,0.674,1.503,1.503
		C69.353,63.713,68.679,64.387,67.85,64.387z M67.85,78.763c-0.829,0-1.503-0.674-1.503-1.503c0-0.828,0.674-1.502,1.503-1.502
		c0.829,0,1.503,0.674,1.503,1.502C69.353,78.089,68.679,78.763,67.85,78.763z M82.227,78.763c-0.829,0-1.503-0.674-1.503-1.503
		c0-0.828,0.674-1.502,1.503-1.502s1.503,0.674,1.503,1.502C83.73,78.089,83.055,78.763,82.227,78.763z M82.227,64.387
		c-0.829,0-1.503-0.674-1.503-1.502c0-0.829,0.674-1.503,1.503-1.503s1.503,0.674,1.503,1.503
		C83.73,63.713,83.055,64.387,82.227,64.387z M82.227,93.139c-0.829,0-1.503-0.674-1.503-1.503s0.674-1.503,1.503-1.503
		s1.503,0.674,1.503,1.503S83.055,93.139,82.227,93.139z"/>
	<linearGradient id="SVGID_1_" gradientUnits="userSpaceOnUse" x1="48.9977" y1="104.29" x2="119.9969" y2="33.2908">
		<stop  offset="0" style="stop-color:#6022FF"/>
		<stop  offset="1" style="stop-color:#00BAFF"/>
	</linearGradient>
	<path fill="url(#SVGID_1_)" d="M94.908,88.139c-2.651,0-4.808-2.156-4.808-4.808v-7.766c0-2.651,2.156-4.807,4.808-4.807h7.766
		c2.651,0,4.808,2.156,4.808,4.807v7.766c0,2.652-2.157,4.808-4.808,4.808H94.908z M93.106,85.133h11.368l0.006-1.798l-0.005-9.572
		H93.106V85.133z M105.979,59.387c-0.829,0-1.503-0.674-1.503-1.502c0-0.829,0.674-1.503,1.503-1.503
		c0.829,0,1.503,0.674,1.503,1.503C107.482,58.713,106.808,59.387,105.979,59.387z M91.603,59.387c-0.829,0-1.503-0.674-1.503-1.502
		c0-0.829,0.674-1.503,1.503-1.503c0.829,0,1.502,0.674,1.502,1.503C93.106,58.713,92.432,59.387,91.603,59.387z M55.415,105.986
		c-6.295,0-11.417-5.123-11.417-11.418V43.013c0-6.295,5.122-11.417,11.417-11.417h5.933v-5.107c0-0.829,0.674-1.503,1.503-1.503
		c0.829,0,1.503,0.674,1.503,1.503v5.107h18.476v-5.107c0-0.829,0.674-1.503,1.503-1.503c0.829,0,1.503,0.674,1.503,1.503v5.107
		h18.641v-5.107c0-0.829,0.674-1.503,1.503-1.503c0.829,0,1.503,0.674,1.503,1.503v5.107h6.098c6.296,0,11.417,5.122,11.417,11.417
		v35.031c0,0.829-0.674,1.503-1.502,1.503c-0.829,0-1.503-0.674-1.503-1.503V43.013c0-4.638-3.773-8.411-8.411-8.411h-6.098v5.107
		c0,0.828-0.674,1.502-1.503,1.502c-0.829,0-1.503-0.674-1.503-1.502v-5.107H85.835v5.107c0,0.828-0.674,1.502-1.503,1.502
		c-0.829,0-1.503-0.674-1.503-1.502v-5.107H64.353v5.107c0,0.828-0.674,1.502-1.503,1.502c-0.829,0-1.503-0.674-1.503-1.502v-5.107
		h-5.933c-4.638,0-8.411,3.773-8.411,8.411v51.555c0,4.638,3.773,8.412,8.411,8.412h58.166c4.638,0,8.411-3.774,8.411-8.412
		c0-0.828,0.674-1.502,1.503-1.502c0.829,0,1.502,0.674,1.502,1.502c0,6.296-5.122,11.418-11.417,11.418H55.415z M62.85,88.139
		c-0.829,0-1.503-0.674-1.503-1.503c0-0.829,0.674-1.503,1.503-1.503c0.829,0,1.503,0.674,1.503,1.503
		C64.353,87.465,63.679,88.139,62.85,88.139z M62.85,59.387c-0.829,0-1.503-0.674-1.503-1.502c0-0.829,0.674-1.503,1.503-1.503
		c0.829,0,1.503,0.674,1.503,1.503C64.353,58.713,63.679,59.387,62.85,59.387z M62.85,73.763c-0.829,0-1.503-0.674-1.503-1.503
		c0-0.828,0.674-1.502,1.503-1.502c0.829,0,1.503,0.674,1.503,1.502C64.353,73.089,63.679,73.763,62.85,73.763z M77.227,73.763
		c-0.829,0-1.503-0.674-1.503-1.503c0-0.828,0.674-1.502,1.503-1.502c0.829,0,1.503,0.674,1.503,1.502
		C78.73,73.089,78.055,73.763,77.227,73.763z M77.227,59.387c-0.829,0-1.503-0.674-1.503-1.502c0-0.829,0.674-1.503,1.503-1.503
		c0.829,0,1.503,0.674,1.503,1.503C78.73,58.713,78.055,59.387,77.227,59.387z M77.227,88.139c-0.829,0-1.503-0.674-1.503-1.503
		c0-0.829,0.674-1.503,1.503-1.503c0.829,0,1.503,0.674,1.503,1.503C78.73,87.465,78.055,88.139,77.227,88.139z"/>
</g>
</svg>
